<?xml version="1.0" encoding="UTF-8"?>
<svg id="Layer_2" data-name="Layer 2" xmlns="http://www.w3.org/2000/svg" viewBox="0 0 970.3 970.3">
  <defs>
    <style>
      .cls-1 {
        fill: #b8e0d2;
        stroke-width: 0px;
      }
    </style>
  </defs>
  <g id="Layer_1-2" data-name="Layer 1">
    <g>
      <path class="cls-1" d="m476.37,970.3h-29.58c0-4.43.02-8.37,0-12.31-.56-85.6-.38-171.22-1.89-256.8-1.83-103.9-38.31-193.61-110.15-268-26.39-27.33-53.4-54.08-78.98-82.17-32.88-36.1-57.42-77.19-64.46-126.93-5.14-36.29-2.47-71.98,11.54-106.28,8.82-21.59,21.79-39.62,42.51-50.72,24.74-13.26,49.69-26.13,75.72-37.69-21.06,33.26-27.45,69.24-25.42,106.88,2.18,40.46,14.94,78.17,34.7,112.96,16.44,28.94,34.92,56.7,53.02,84.64,35.42,54.7,65.35,111.95,79.72,176.4,3.63,16.28,5.56,32.95,8.31,49.43.27,1.62.85,3.18,1.62,6.03,12.48-41.03,14.97-81.53,14.87-122.44-.34-143.67-.43-287.34-.61-431.01,0-3.27,0-6.54,0-12.28,25.33,2.61,49.69,3.96,73.66,7.83,48.66,7.85,95.33,22.69,138.71,46.84,5.41,3.02,10.72,9.13,12.8,15.01,27.07,76.41,20.3,151.31-11.65,224.56-24.29,55.69-58.11,105.35-93.9,153.95-29.75,40.4-59.33,81.19-85.46,124.03-28.83,47.26-45.63,99.13-45.04,156.11.78,75.17.04,150.36-.05,225.55,0,5.13,0,10.26,0,16.42Z"/>
      <path class="cls-1" d="m427.52,969.23c-189.48-18.11-361.6-163.3-412.06-358.96C-34.48,416.67,42.5,225.1,161.79,127.55c-7.7,14.95-15.03,27.88-21.19,41.37-29.8,65.26-42.89,133.19-29.58,204.87,8.23,44.3,30.92,80.79,61.57,112.33,30.58,31.47,63.06,61.09,92.58,93.54,59.27,65.15,100.95,141.43,126.53,225.94,14.46,47.79,23.52,97.29,34.73,146.08,1.28,5.58.75,11.58,1.07,17.54Z"/>
      <path class="cls-1" d="m807.61,129.8c139.02,118.33,198.79,321.13,140.44,500.47-64.85,199.3-235.3,320.88-414.76,338.07,3.53-13.03,6.16-25.46,10.24-37.38,24.7-72.18,63.77-136,110.5-195.33,52.02-66.03,100.24-134.64,136.34-211.29,32.26-68.49,52.48-140.27,55.35-216.53,2.36-62.5-8.53-122.16-38.11-178.02Z"/>
    </g>
  </g>
</svg>